<svg width="128" height="128" viewBox="0 0 128 128" fill="none" xmlns="http://www.w3.org/2000/svg">
<g filter="url(#filter0_d)">
<circle cx="64" cy="64" r="55" fill="#DF6004"/>
<circle cx="64" cy="64" r="55" fill="url(#paint0_linear)"/>
</g>
<path d="M72.3496 78.8242C72.209 79.0117 72.0332 79.1406 71.8223 79.2109C71.6113 79.2812 71.4004 79.3398 71.1895 79.3867C70.9785 79.4336 70.7559 79.4805 70.5215 79.5273C70.3105 79.5977 70.123 79.7031 69.959 79.8438C69.9121 79.8672 69.877 79.8906 69.8535 79.9141C69.8535 79.9375 69.8301 79.9492 69.7832 79.9492C69.7129 79.9492 69.6426 79.8906 69.5723 79.7734C69.5254 79.6797 69.4434 79.6094 69.3262 79.5625C68.7168 79.8906 68.0605 80.1719 67.3574 80.4062C66.6543 80.6641 65.9512 80.9219 65.248 81.1797C64.5684 81.4609 63.9004 81.7539 63.2441 82.0586C62.5879 82.3867 62.0137 82.7852 61.5215 83.2539C61.1465 83.3008 60.7598 83.3828 60.3613 83.5C59.9863 83.6406 59.7051 83.8984 59.5176 84.2734H59.4121C59.3184 84.2734 59.248 84.2383 59.2012 84.168C59.1543 84.1211 59.084 84.0977 58.9902 84.0977C58.8262 84.0977 58.7207 84.1445 58.6738 84.2383C58.627 84.332 58.5918 84.4258 58.5684 84.5195C58.5684 84.6367 58.5566 84.7422 58.5332 84.8359C58.5098 84.9297 58.4395 84.9766 58.3223 84.9766C58.2754 84.9766 58.2285 84.9297 58.1816 84.8359C58.1348 84.7656 58.0176 84.7422 57.8301 84.7656C56.9629 85.2344 56.0605 85.7031 55.123 86.1719C54.1855 86.6641 53.377 87.2852 52.6973 88.0352C52.6504 87.9883 52.5918 87.9648 52.5215 87.9648C52.4746 87.9648 52.4395 87.9648 52.416 87.9648L52.3809 88C52.334 88 52.2988 87.9883 52.2754 87.9648C52.252 87.9414 52.2285 87.9297 52.2051 87.9297C51.666 88.3984 51.0918 88.8203 50.4824 89.1953C49.8965 89.5938 49.2988 89.9805 48.6895 90.3555C48.0801 90.7305 47.4824 91.1055 46.8965 91.4805C46.3105 91.8789 45.7598 92.3242 45.2441 92.8164C44.916 92.8398 44.5879 92.9102 44.2598 93.0273C43.9316 93.1445 43.6035 93.2617 43.2754 93.3789C42.9707 93.4961 42.6543 93.6016 42.3262 93.6953C41.998 93.8125 41.6699 93.8711 41.3418 93.8711C40.7324 93.8711 40.2285 93.6016 39.8301 93.0625C39.7598 93.1094 39.6895 93.1445 39.6191 93.168C39.5723 93.1914 39.5137 93.2031 39.4434 93.2031C39.2559 93.2031 39.0801 93.1211 38.916 92.957C38.7754 92.8164 38.5762 92.7695 38.3184 92.8164C38.0137 92.4883 37.791 92.0664 37.6504 91.5508C37.5332 91.0586 37.3809 90.6016 37.1934 90.1797C37.2402 89.2656 37.3926 88.375 37.6504 87.5078C37.9316 86.6641 38.1074 85.7852 38.1777 84.8711C38.3887 84.6602 38.5527 84.4141 38.6699 84.1328C38.7871 83.875 38.8926 83.5938 38.9863 83.2891C39.1035 83.0078 39.2207 82.7266 39.3379 82.4453C39.4551 82.1641 39.6191 81.9297 39.8301 81.7422C39.9707 81.0391 40.2051 80.3711 40.5332 79.7383C40.8613 79.1055 41.084 78.4258 41.2012 77.6992C41.3887 77.582 41.541 77.4414 41.6582 77.2773C41.7988 77.1133 41.9512 76.9609 42.1152 76.8203V76.6094C42.1152 76.4219 42.0684 76.2812 41.9746 76.1875C42.1387 75.7656 42.3145 75.3672 42.502 74.9922C42.7129 74.6172 42.9121 74.2422 43.0996 73.8672C43.2871 73.4922 43.4512 73.1055 43.5918 72.707C43.7324 72.3086 43.8262 71.875 43.873 71.4062C44.0605 71.2422 44.2012 71.043 44.2949 70.8086C44.3887 70.5508 44.4707 70.3047 44.541 70.0703C44.6348 69.8125 44.7285 69.5781 44.8223 69.3672C44.9395 69.1562 45.127 68.9922 45.3848 68.875C45.3613 68.8281 45.3496 68.7695 45.3496 68.6992C45.3496 68.4648 45.4082 68.2539 45.5254 68.0664C45.666 67.8789 45.7363 67.6797 45.7363 67.4688C45.7363 67.3516 45.7012 67.2344 45.6309 67.1172C46.0996 66.1328 46.5566 65.1719 47.002 64.2344C47.4473 63.2734 47.7871 62.2539 48.0215 61.1758C48.2559 61.0586 48.3965 60.8828 48.4434 60.6484C48.4902 60.4141 48.5957 60.2031 48.7598 60.0156V59.8398C48.7598 59.4414 48.8418 58.9961 49.0059 58.5039C49.1934 58.0117 49.416 57.6016 49.6738 57.2734C49.791 56.4531 49.9199 55.5977 50.0605 54.707C50.2246 53.793 50.4707 52.9609 50.7988 52.2109C50.752 52.0469 50.6816 51.8828 50.5879 51.7188C50.5176 51.5547 50.459 51.3789 50.4121 51.1914C49.8262 51.5195 49.1582 51.8125 48.4082 52.0703C48.2676 52.1172 48.1152 52.1641 47.9512 52.2109C47.7871 52.2344 47.6465 52.2812 47.5293 52.3516C47.3887 52.3984 47.3066 52.5156 47.2832 52.7031C47.2598 52.8672 47.248 53.0078 47.248 53.125C46.9668 53.125 46.7441 53.1836 46.5801 53.3008C46.416 53.418 46.252 53.5586 46.0879 53.7227C45.9473 53.8633 45.7949 54.0039 45.6309 54.1445C45.4668 54.2617 45.2559 54.3438 44.998 54.3906C44.7168 54.6719 44.4824 54.8945 44.2949 55.0586C44.1074 55.1992 43.8379 55.3398 43.4863 55.4805C43.3691 55.5273 43.252 55.6211 43.1348 55.7617L42.7832 56.1836C42.666 56.3242 42.5488 56.4414 42.4316 56.5352C42.3379 56.6289 42.2324 56.6641 42.1152 56.6406C42.0449 56.8516 41.9395 57.0273 41.7988 57.168C41.6816 57.3086 41.5527 57.4492 41.4121 57.5898C41.2715 57.707 41.1543 57.8477 41.0605 58.0117C40.9668 58.1758 40.9316 58.3867 40.9551 58.6445C40.8613 58.7383 40.7793 58.7852 40.709 58.7852C40.6387 58.7852 40.5566 58.7383 40.4629 58.6445C40.416 58.9258 40.3223 59.1602 40.1816 59.3477C40.0645 59.5117 39.9238 59.6641 39.7598 59.8047C39.5957 59.9453 39.4199 60.0859 39.2324 60.2266C39.0449 60.3672 38.8691 60.5195 38.7051 60.6836C38.4941 60.6602 38.3066 60.6133 38.1426 60.543C38.002 60.4727 37.8496 60.4023 37.6855 60.332C37.5215 60.2617 37.3457 60.2148 37.1582 60.1914C36.9941 60.1445 36.7832 60.1328 36.5254 60.1562C36.5488 60.0156 36.5254 59.9102 36.4551 59.8398C36.3848 59.7695 36.291 59.7109 36.1738 59.6641C36.1738 59.4766 36.1738 59.2422 36.1738 58.9609C36.1973 58.6797 36.209 58.3984 36.209 58.1172C36.2324 57.8125 36.2676 57.5312 36.3145 57.2734C36.3613 57.0156 36.4316 56.8047 36.5254 56.6406C36.666 56.4062 36.8887 56.1953 37.1934 56.0078C37.5215 55.8203 37.8613 55.6328 38.2129 55.4453C38.5879 55.2344 38.9395 55.0234 39.2676 54.8125C39.6191 54.5781 39.9004 54.2969 40.1113 53.9688C40.1348 53.9922 40.1816 54.0039 40.252 54.0039C40.4395 54.0039 40.5918 53.957 40.709 53.8633C40.8262 53.6523 40.9785 53.5 41.166 53.4062C41.377 53.3125 41.5645 53.1719 41.7285 52.9844C41.7988 52.9141 41.834 52.832 41.834 52.7383C41.8574 52.6211 41.9043 52.5273 41.9746 52.457C42.0449 52.3867 42.1738 52.3164 42.3613 52.2461C42.5723 52.1758 42.7363 52.082 42.8535 51.9648C42.9941 51.8477 43.0996 51.7188 43.1699 51.5781C43.2637 51.4375 43.3691 51.3086 43.4863 51.1914C43.6738 51.0508 43.873 50.9453 44.084 50.875C44.3184 50.8047 44.541 50.7109 44.752 50.5938C44.9629 50.4531 45.1504 50.2891 45.3145 50.1016C45.502 49.9141 45.6426 49.6914 45.7363 49.4336C46.2051 49.2227 46.6621 49.0117 47.1074 48.8008C47.5527 48.5664 47.9863 48.3203 48.4082 48.0625C48.6426 47.9219 48.8652 47.7695 49.0762 47.6055C49.2871 47.418 49.498 47.2422 49.709 47.0781C49.9434 46.9141 50.1777 46.7734 50.4121 46.6562C50.6699 46.5391 50.9395 46.4805 51.2207 46.4805C51.5723 46.4805 51.8418 46.5508 52.0293 46.6914C52.2168 46.8086 52.3809 46.9492 52.5215 47.1133C52.6855 47.2539 52.8496 47.4062 53.0137 47.5703C53.2012 47.7344 53.4355 47.8516 53.7168 47.9219C53.9512 48.2969 54.1035 48.707 54.1738 49.1523C54.2676 49.5742 54.3262 50.0195 54.3496 50.4883C54.373 50.9336 54.373 51.3789 54.3496 51.8242C54.3496 52.2695 54.3848 52.7031 54.4551 53.125C54.3145 53.5234 54.1504 53.9102 53.9629 54.2852C53.7754 54.6602 53.6816 55.0586 53.6816 55.4805C53.6816 55.6445 53.6934 55.7852 53.7168 55.9023H53.2949C53.2012 56.6758 53.0254 57.4375 52.7676 58.1875C52.5098 58.9141 52.2168 59.6406 51.8887 60.3672L50.9395 62.5117C50.6348 63.2148 50.377 63.9414 50.166 64.6914C50.1191 64.9023 50.0371 65.0312 49.9199 65.0781C49.8027 65.1016 49.7207 65.1953 49.6738 65.3594C49.5566 65.6172 49.4629 65.8984 49.3926 66.2031C49.3223 66.5078 49.2285 66.8008 49.1113 67.082C48.877 67.6914 48.6426 68.2773 48.4082 68.8398C48.1738 69.4023 47.9277 69.9531 47.6699 70.4922V70.8438C47.6699 70.9609 47.7051 71.0195 47.7754 71.0195C47.0254 72.0508 46.5215 73.2227 46.2637 74.5352C46.0762 74.6758 45.9355 74.8516 45.8418 75.0625C45.7715 75.25 45.6543 75.4141 45.4902 75.5547C45.3262 76.2344 45.1035 76.9023 44.8223 77.5586C44.5645 78.1914 44.2949 78.8242 44.0137 79.457C43.7324 80.0898 43.4629 80.7227 43.2051 81.3555C42.9473 82.0117 42.748 82.6797 42.6074 83.3594C42.3496 83.5938 42.1387 83.875 41.9746 84.2031C41.834 84.5312 41.7051 84.8828 41.5879 85.2578C41.4941 85.6328 41.4004 86.0078 41.3066 86.3828C41.2363 86.7578 41.1543 87.0977 41.0605 87.4023L40.709 88.668V89.3711C40.709 89.4883 40.6973 89.6172 40.6738 89.7578C40.6504 89.8984 40.5801 89.9922 40.4629 90.0391C40.5098 90.2031 40.5684 90.332 40.6387 90.4258C40.7324 90.5195 40.7559 90.6484 40.709 90.8125C40.8027 91 40.9668 91.1055 41.2012 91.1289C41.459 91.1758 41.6816 91.2344 41.8691 91.3047C42.0566 91.2578 42.1621 91.1523 42.1855 90.9883C42.209 90.8242 42.2676 90.6836 42.3613 90.5664C42.5723 90.2852 42.8887 89.9805 43.3105 89.6523C43.7559 89.3242 44.2246 88.9844 44.7168 88.6328C45.2324 88.2812 45.7246 87.9414 46.1934 87.6133C46.6855 87.3086 47.084 87.0273 47.3887 86.7695H48.0215C48.8652 86.2305 49.709 85.7031 50.5527 85.1875C51.3965 84.6953 52.2754 84.25 53.1895 83.8516C53.4238 83.5469 53.7051 83.3125 54.0332 83.1484C54.3848 82.9844 54.7363 82.8203 55.0879 82.6562C55.4629 82.5156 55.8145 82.3633 56.1426 82.1992C56.4941 82.0352 56.7754 81.8008 56.9863 81.4961C57.2441 81.4492 57.5254 81.3906 57.8301 81.3203C58.1348 81.25 58.3574 81.0859 58.498 80.8281H58.6387C58.709 80.8281 58.7793 80.8398 58.8496 80.8633C58.9199 80.9102 58.9668 80.9805 58.9902 81.0742C59.1543 81.0273 59.248 80.9219 59.2715 80.7578C59.3184 80.5938 59.4004 80.4531 59.5176 80.3359C60.1973 80.0781 60.8887 79.8086 61.5918 79.5273C62.2949 79.2461 62.9863 78.9297 63.666 78.5781C63.9941 78.5781 64.3574 78.5312 64.7559 78.4375C65.1777 78.3438 65.4941 78.1328 65.7051 77.8047C65.752 77.8281 65.8105 77.8398 65.8809 77.8398C66.1387 77.8398 66.3848 77.8047 66.6191 77.7344C66.877 77.6406 67.1348 77.5469 67.3926 77.4531C67.6504 77.3359 67.9082 77.2305 68.166 77.1367C68.4238 77.043 68.6934 76.9844 68.9746 76.9609H69.0449C69.0918 76.9609 69.1035 76.9023 69.0801 76.7852C69.0801 76.6445 69.0801 76.5625 69.0801 76.5391C69.0801 76.4453 69.127 76.4102 69.2207 76.4336C69.291 76.4102 69.4082 76.3984 69.5723 76.3984C69.8301 76.3984 70.0645 76.457 70.2754 76.5742C70.5098 76.668 70.7324 76.7852 70.9434 76.9258C71.1543 77.0664 71.3652 77.2188 71.5762 77.3828C71.7871 77.5234 72.0098 77.6289 72.2441 77.6992C72.1973 77.8867 72.1738 78.0391 72.1738 78.1562C72.1738 78.2734 72.1855 78.3906 72.209 78.5078C72.2559 78.6016 72.3027 78.707 72.3496 78.8242ZM90.3848 43.8086C90.3379 44.0195 90.2559 44.2188 90.1387 44.4062C90.0215 44.5938 89.9395 44.8047 89.8926 45.0391C89.5879 45.0391 89.2949 45.0859 89.0137 45.1797C88.7324 45.2734 88.5566 45.4844 88.4863 45.8125H88.3809C88.2637 45.8125 88.1816 45.7656 88.1348 45.6719C88.1113 45.5781 88.041 45.5312 87.9238 45.5312H87.8887L87.8535 45.5664C87.3848 45.707 86.916 45.8594 86.4473 46.0234C85.9785 46.1875 85.5098 46.3398 85.041 46.4805C84.0566 46.8086 83.0723 47.125 82.0879 47.4297C81.127 47.7344 80.1895 48.1211 79.2754 48.5898H78.502C77.0957 49.5039 75.6309 50.3008 74.1074 50.9805C72.6074 51.6602 71.1309 52.4102 69.6777 53.2305C69.5137 53.4883 69.3262 53.7344 69.1152 53.9688C68.9043 54.1797 68.6699 54.4023 68.4121 54.6367C68.5527 54.7539 68.623 54.9414 68.623 55.1992C68.623 55.5273 68.5879 55.8438 68.5176 56.1484C68.4473 56.4297 68.4121 56.7227 68.4121 57.0273C68.4121 57.2148 68.4473 57.3555 68.5176 57.4492C68.5879 57.543 68.6934 57.6484 68.834 57.7656C68.7871 57.9062 68.7285 58.0352 68.6582 58.1523L68.4473 58.4688C68.377 58.5625 68.3066 58.6914 68.2363 58.8555C68.1895 59.0195 68.166 59.2422 68.166 59.5234C68.166 60.5078 68.084 61.4688 67.9199 62.4062C67.7559 63.3438 67.6738 64.3047 67.6738 65.2891C67.6738 65.875 67.7207 66.4023 67.8145 66.8711C67.9785 66.8008 68.1309 66.7188 68.2715 66.625C68.4121 66.5312 68.5762 66.4375 68.7637 66.3438C68.9043 66.2734 69.0332 66.2266 69.1504 66.2031C69.291 66.1797 69.4316 66.1445 69.5723 66.0977C69.6895 66.0508 69.7363 65.9688 69.7129 65.8516C69.6895 65.7344 69.7246 65.6523 69.8184 65.6055C69.8887 65.5586 69.9824 65.5352 70.0996 65.5352C70.2402 65.5117 70.3574 65.4766 70.4512 65.4297C70.6387 65.3828 70.8027 65.3359 70.9434 65.2891C71.1074 65.2188 71.2832 65.1602 71.4707 65.1133C72.2207 64.832 72.9473 64.5156 73.6504 64.1641C74.377 63.8125 75.1504 63.625 75.9707 63.6016C76.0879 63.4375 76.2402 63.3203 76.4277 63.25C76.6152 63.1562 76.8145 63.0859 77.0254 63.0391C77.2363 62.9688 77.4355 62.9102 77.623 62.8633C77.834 62.793 78.0098 62.6875 78.1504 62.5469C78.9941 62.3594 79.8496 62.2188 80.7168 62.125C81.6074 62.0312 82.498 61.9844 83.3887 61.9844C83.8574 61.9844 84.3262 62.0195 84.7949 62.0898C85.1934 62.3008 85.5801 62.4883 85.9551 62.6523C86.3301 62.8164 86.7168 62.9922 87.1152 63.1797C87.5137 63.4141 87.9004 63.6836 88.2754 63.9883C88.6738 64.2695 89.0371 64.5977 89.3652 64.9727C89.7637 65.3711 90.0215 65.8398 90.1387 66.3789C90.2793 66.918 90.3496 67.457 90.3496 67.9961C90.3496 68.1367 90.3379 68.3359 90.3145 68.5938C90.3145 68.8516 90.291 69.1211 90.2441 69.4023C90.2207 69.6836 90.1855 69.9531 90.1387 70.2109C90.0918 70.4688 90.0449 70.6562 89.998 70.7734C89.9512 70.8672 89.7637 71.1953 89.4355 71.7578C89.1309 72.3203 88.791 72.9297 88.416 73.5859C88.0645 74.2422 87.7246 74.8516 87.3965 75.4141C87.0918 75.9531 86.916 76.2461 86.8691 76.293C86.8223 76.3398 86.7285 76.375 86.5879 76.3984C86.4707 76.4219 86.3887 76.4336 86.3418 76.4336C86.2949 76.6914 86.2012 76.9023 86.0605 77.0664C85.9434 77.2305 85.8145 77.3945 85.6738 77.5586C85.5332 77.6992 85.3926 77.8633 85.252 78.0508C85.1348 78.2148 85.0762 78.4375 85.0762 78.7188C84.8887 78.7656 84.7363 78.8477 84.6191 78.9648C84.502 79.082 84.3613 79.1641 84.1973 79.2109C83.8691 79.7734 83.4941 80.2891 83.0723 80.7578C82.6504 81.25 82.2051 81.7188 81.7363 82.1641L80.3652 83.5352C79.9199 84.0039 79.5098 84.4961 79.1348 85.0117H79.0293C78.8418 84.9883 78.7012 85.0352 78.6074 85.1523C78.5371 85.2695 78.4199 85.3398 78.2559 85.3633C78.1855 85.4805 78.1387 85.6094 78.1152 85.75C78.1152 85.9141 78.127 86.0547 78.1504 86.1719H77.4824C77.2246 86.5 76.9199 86.7695 76.5684 86.9805C76.2402 87.2148 75.8887 87.4375 75.5137 87.6484C75.1621 87.8594 74.8105 88.082 74.459 88.3164C74.1309 88.5508 73.8496 88.8438 73.6152 89.1953C73.5918 89.1719 73.5449 89.1602 73.4746 89.1602C73.3574 89.1602 73.2637 89.1953 73.1934 89.2656C73.1465 89.3359 73.0293 89.3477 72.8418 89.3008C72.4902 89.5117 72.209 89.793 71.998 90.1445C71.7871 90.4961 71.4824 90.7656 71.084 90.9531C70.6387 90.7422 70.1816 90.5195 69.7129 90.2852C69.2441 90.0508 68.8574 89.7227 68.5527 89.3008C68.7168 88.9492 68.8105 88.6094 68.834 88.2812C69.9824 87.625 71.1191 86.9336 72.2441 86.207C73.3691 85.5039 74.3652 84.6367 75.2324 83.6055C75.2559 83.6289 75.3027 83.6406 75.373 83.6406C75.4434 83.6406 75.502 83.6172 75.5488 83.5703C75.5957 83.5469 75.6426 83.5352 75.6895 83.5352C75.7363 83.5352 75.7715 83.5469 75.7949 83.5703C75.8184 83.5938 75.8418 83.6055 75.8652 83.6055C75.8887 83.3945 75.959 83.2188 76.0762 83.0781C76.2168 82.9609 76.3574 82.832 76.498 82.6914C76.6387 82.5742 76.7676 82.4453 76.8848 82.3047C77.002 82.1875 77.0605 82.0352 77.0605 81.8477C77.0605 81.7539 77.0371 81.6367 76.9902 81.4961C77.5293 81.2148 77.998 80.8633 78.3965 80.4414C78.8184 80.043 79.2168 79.6094 79.5918 79.1406C79.9668 78.6953 80.3418 78.2617 80.7168 77.8398C81.0918 77.3945 81.5254 77.0078 82.0176 76.6797V76.0469C82.2754 75.9766 82.4746 75.8594 82.6152 75.6953C82.7793 75.5078 82.9199 75.3086 83.0371 75.0977C83.1543 74.8867 83.2715 74.6875 83.3887 74.5C83.5293 74.2891 83.7168 74.1367 83.9512 74.043C83.9512 73.9961 83.9629 73.9492 83.9863 73.9023C84.0098 73.832 84.0215 73.7617 84.0215 73.6914C84.0215 73.6445 84.0098 73.5977 83.9863 73.5508C83.9629 73.5039 83.9512 73.457 83.9512 73.4102H84.3027C84.6543 72.6133 85.0527 71.8516 85.498 71.125C85.9668 70.375 86.3301 69.5781 86.5879 68.7344C86.541 68.1484 86.4121 67.6562 86.2012 67.2578C85.9902 66.8594 85.7441 66.4258 85.4629 65.957C85.0879 65.957 84.8066 65.875 84.6191 65.7109C84.4551 65.5234 84.2324 65.3594 83.9512 65.2188C83.8105 65.2656 83.6816 65.2891 83.5645 65.2891C83.4473 65.2891 83.3184 65.2773 83.1777 65.2539C83.0605 65.2305 82.9434 65.2188 82.8262 65.2188C82.5684 65.2188 82.3574 65.3008 82.1934 65.4648H82.0879C81.9707 65.4883 81.877 65.4531 81.8066 65.3594C81.7598 65.2422 81.6777 65.1836 81.5605 65.1836C81.5371 65.1836 81.5137 65.1953 81.4902 65.2188C81.4668 65.2188 81.4434 65.2188 81.4199 65.2188C80.9746 65.1719 80.541 65.207 80.1191 65.3242C79.7207 65.4414 79.2988 65.5 78.8535 65.5C78.7129 65.5 78.5957 65.4883 78.502 65.4648C78.291 65.7227 77.998 65.8984 77.623 65.9922C77.2715 66.0859 76.9434 66.1562 76.6387 66.2031C76.0762 66.6016 75.502 66.9414 74.916 67.2227C74.3535 67.4805 73.7441 67.7031 73.0879 67.8906C72.6895 68.1953 72.2676 68.4766 71.8223 68.7344C71.377 68.9688 70.9199 69.2148 70.4512 69.4727C70.0059 69.7305 69.584 70.0117 69.1855 70.3164C68.7871 70.6211 68.4473 70.9844 68.166 71.4062V71.5117C68.1426 71.6992 68.2012 71.8398 68.3418 71.9336C68.4824 72.0273 68.5527 72.1914 68.5527 72.4258C68.3652 72.6367 68.2363 72.8477 68.166 73.0586C68.1191 73.2461 68.1191 73.4922 68.166 73.7969L67.6035 74.0781C67.416 74.1719 67.2285 74.2891 67.041 74.4297C66.7832 74.3359 66.5254 74.2422 66.2676 74.1484C66.0332 74.0312 65.7637 73.9727 65.459 73.9727C65.3184 73.9727 65.1309 73.9961 64.8965 74.043C64.6152 73.5977 64.2637 73.2109 63.8418 72.8828C63.4199 72.5547 63.0098 72.2266 62.6113 71.8984C62.6582 71.5703 62.7285 71.2305 62.8223 70.8789C62.9395 70.5039 63.1738 70.2578 63.5254 70.1406C63.5488 70.0234 63.5605 69.918 63.5605 69.8242V69.5078C63.5605 69.2266 63.5371 68.957 63.4902 68.6992C63.4668 68.418 63.4551 68.1484 63.4551 67.8906C63.4551 67.6562 63.4668 67.4922 63.4902 67.3984C63.5371 67.2812 63.584 67.1992 63.6309 67.1523C63.6777 67.1055 63.7246 67.0703 63.7715 67.0469C63.8184 67 63.8535 66.9414 63.877 66.8711C63.9473 66.5195 63.959 66.1445 63.9121 65.7461C63.8887 65.3477 63.877 64.9727 63.877 64.6211C63.877 64.1523 63.9121 63.6953 63.9824 63.25C64.0762 62.7812 64.2637 62.3477 64.5449 61.9492C64.5215 61.832 64.5098 61.7266 64.5098 61.6328V61.3164C64.5098 60.332 64.5801 59.3594 64.7207 58.3984C64.8848 57.4375 65.0254 56.4648 65.1426 55.4805C64.9316 55.2227 64.6738 55 64.3691 54.8125C64.0879 54.625 63.8418 54.3906 63.6309 54.1094C63.7012 53.4297 63.9004 52.8789 64.2285 52.457C64.5801 52.0352 65.0137 51.6133 65.5293 51.1914V51.0859C65.5293 50.9453 65.4941 50.8047 65.4238 50.6641C65.377 50.5234 65.3535 50.3711 65.3535 50.207C65.3535 50.1602 65.3535 50.125 65.3535 50.1016C65.377 50.0547 65.3887 50.0078 65.3887 49.9609C65.6699 49.7734 66.0098 49.5977 66.4082 49.4336C66.8066 49.2695 67.1699 49.1875 67.498 49.1875C67.709 49.1875 67.8965 49.2344 68.0605 49.3281C69.4668 48.8125 70.8496 48.2266 72.209 47.5703C72.6543 47.5469 73.0996 47.4766 73.5449 47.3594C74.0137 47.2422 74.4121 47.0078 74.7402 46.6562C74.9746 46.5859 75.2324 46.5273 75.5137 46.4805C75.7949 46.4102 76.0762 46.3281 76.3574 46.2344C76.6387 46.1406 76.8965 46.0352 77.1309 45.918C77.3887 45.7773 77.5996 45.6133 77.7637 45.4258C77.9277 45.4961 78.1152 45.5312 78.3262 45.5312C78.6074 45.5312 78.8887 45.4609 79.1699 45.3203C79.4746 45.1562 79.7207 44.9805 79.9082 44.793C79.9551 44.793 80.002 44.8047 80.0488 44.8281C80.1191 44.8281 80.1895 44.8281 80.2598 44.8281C80.4941 44.8281 80.6934 44.7812 80.8574 44.6875C81.0449 44.5938 81.2324 44.4883 81.4199 44.3711C81.6309 44.2305 81.8418 44.1133 82.0527 44.0195C82.2637 43.9258 82.5215 43.8789 82.8262 43.8789H83.0371C83.1309 43.8789 83.2129 43.8906 83.2832 43.9141C83.6113 43.8438 83.9395 43.7266 84.2676 43.5625C84.5957 43.3984 84.9238 43.3164 85.252 43.3164C85.4863 43.3164 85.6738 43.3867 85.8145 43.5273C85.8848 43.4102 85.9785 43.293 86.0957 43.1758C86.2129 43.0352 86.3301 42.9414 86.4473 42.8945C86.541 42.8477 86.6582 42.8242 86.7988 42.8242C86.9395 42.8008 87.0684 42.7773 87.1855 42.7539C87.3027 42.7305 87.3965 42.6836 87.4668 42.6133C87.5605 42.543 87.6074 42.4375 87.6074 42.2969C87.7012 42.3438 87.7949 42.3672 87.8887 42.3672C88.0059 42.3672 88.1113 42.332 88.2051 42.2617C88.3223 42.168 88.416 42.0859 88.4863 42.0156C88.6504 42.0625 88.7676 42.1445 88.8379 42.2617C88.9316 42.3789 89.0137 42.5078 89.084 42.6484C89.1777 42.7656 89.2832 42.8711 89.4004 42.9648C89.541 43.0586 89.7402 43.082 89.998 43.0352C90.0449 43.3398 90.1738 43.5977 90.3848 43.8086Z" fill="white"/>
<defs>
<filter id="filter0_d" x="5" y="8" width="118" height="118" filterUnits="userSpaceOnUse" color-interpolation-filters="sRGB">
<feFlood flood-opacity="0" result="BackgroundImageFix"/>
<feColorMatrix in="SourceAlpha" type="matrix" values="0 0 0 0 0 0 0 0 0 0 0 0 0 0 0 0 0 0 127 0"/>
<feOffset dy="3"/>
<feGaussianBlur stdDeviation="2"/>
<feColorMatrix type="matrix" values="0 0 0 0 0 0 0 0 0 0 0 0 0 0 0 0 0 0 0.25 0"/>
<feBlend mode="normal" in2="BackgroundImageFix" result="effect1_dropShadow"/>
<feBlend mode="normal" in="SourceGraphic" in2="effect1_dropShadow" result="shape"/>
</filter>
<linearGradient id="paint0_linear" x1="64" y1="9" x2="64" y2="119" gradientUnits="userSpaceOnUse">
<stop stop-color="#C18F0D"/>
<stop offset="1" stop-color="white" stop-opacity="0"/>
</linearGradient>
</defs>
</svg>
