<svg width="128" height="128" viewBox="0 0 128 128" fill="none" xmlns="http://www.w3.org/2000/svg">
<g clip-path="url(#clip0)">
<g style="mix-blend-mode:darken" filter="url(#filter0_d)">
<circle cx="64" cy="64" r="60" fill="url(#paint0_linear)" style="mix-blend-mode:hard-light"/>
</g>
<g filter="url(#filter1_d)">
<path d="M42 75.6562C41.7083 76.5104 41.3438 77.0625 40.9062 77.3125C40.4688 77.5625 39.7708 77.6875 38.8125 77.6875C37.0833 77.6875 36.2188 77.2917 36.2188 76.5C36.2188 76.2917 36.4479 75.6771 36.9062 74.6562C37.3854 73.6354 38.2292 72.3125 39.4375 70.6875C40.6667 69.0625 41.8854 67.6458 43.0938 66.4375C44.3021 65.2292 45.5417 63.9792 46.8125 62.6875C48.0833 61.3958 49.1979 60.2188 50.1562 59.1562C51.1146 58.0938 51.8958 56.9479 52.5 55.7188C53.125 54.4688 53.4375 53.2396 53.4375 52.0312C53.4375 49.6146 52.875 47.8958 51.75 46.875C50.625 45.8333 48.7083 45.3125 46 45.3125C44.8125 45.3125 43.4688 45.5833 41.9688 46.125C40.4688 46.6667 38.9896 47.6146 37.5312 48.9688C36.5938 49.8021 35.9896 50.2188 35.7188 50.2188C35.3229 50.2188 35.125 50.0104 35.125 49.5938C35.125 49.0729 35.3646 48.3333 35.8438 47.375C36.8646 45.6458 38.1042 44.2188 39.5625 43.0938C41.0417 41.9688 42.4688 41.2083 43.8438 40.8125C45.2188 40.3958 46.6146 40.1875 48.0312 40.1875C51.5729 40.1875 54.3854 41.1771 56.4688 43.1562C58.5521 45.1146 59.5938 47.8646 59.5938 51.4062C59.5938 52.7188 59.3125 54.0417 58.75 55.375C58.2083 56.7083 57.4792 57.9583 56.5625 59.125C55.6458 60.2917 54.625 61.4479 53.5 62.5938C52.3958 63.7396 51.2396 64.875 50.0312 66C48.8438 67.1042 47.7188 68.1771 46.6562 69.2188C45.6146 70.2396 44.6667 71.3125 43.8125 72.4375C42.9583 73.5625 42.3542 74.6354 42 75.6562ZM37.1875 79.25H59.5625C60.4583 79.25 60.9062 79.5625 60.9062 80.1875C60.9062 80.5 60.6667 81.1458 60.1875 82.125C59.7292 83.1042 59.2188 83.8542 58.6562 84.375C58.1979 84.7917 57.4271 85 56.3438 85H36.25C35.375 85 34.9375 84.4271 34.9375 83.2812C34.9375 81.9688 35.0833 80.9688 35.375 80.2812C35.6875 79.5938 36.2917 79.25 37.1875 79.25ZM73.9375 50.6875V56.5625C73.9375 57.25 74.0833 57.6979 74.375 57.9062C74.6875 58.1146 75.0833 58.2188 75.5625 58.2188C75.9167 58.2188 76.4375 58.2083 77.125 58.1875C77.8333 58.1667 78.2917 58.1562 78.5 58.1562C80.6458 58.1562 82.5729 58.4167 84.2812 58.9375C86.0104 59.4375 87.5417 60.2292 88.875 61.3125C90.2083 62.375 91.2292 63.8125 91.9375 65.625C92.6667 67.4375 93.0312 69.5625 93.0312 72C93.0312 73.75 92.7083 75.4375 92.0625 77.0625C91.4375 78.6667 90.6458 80 89.6875 81.0625C88.75 82.1042 87.7604 82.9375 86.7188 83.5625C85.6979 84.1875 84.7708 84.5 83.9375 84.5C83.7292 84.5 83.5521 84.4479 83.4062 84.3438C83.2812 84.2188 83.2188 84.0729 83.2188 83.9062C83.2188 83.7604 83.2708 83.5938 83.375 83.4062C83.5 83.2188 83.6771 82.9479 83.9062 82.5938C84.1562 82.2396 84.375 81.8854 84.5625 81.5312C86.0208 78.7396 86.75 75.9271 86.75 73.0938C86.75 69.6771 85.8542 67.1042 84.0625 65.375C82.2708 63.625 79.4375 62.75 75.5625 62.75C74.8542 62.75 73.8958 62.8438 72.6875 63.0312C71.5 63.1979 70.75 63.2812 70.4375 63.2812C69.375 63.2812 68.8438 62.6979 68.8438 61.5312V50.6875C68.8438 49.4583 69.6875 48.8438 71.375 48.8438C72.25 48.8438 72.8958 48.9688 73.3125 49.2188C73.7292 49.4479 73.9375 49.9375 73.9375 50.6875ZM74.9688 85.9688C72.5104 85.9688 70.2917 85.1146 68.3125 83.4062C67.625 82.7396 67.2812 82.0938 67.2812 81.4688C67.2812 81.0521 67.5417 80.5625 68.0625 80C69.375 78.6875 70.5521 78.0312 71.5938 78.0312C72.2812 78.0312 73.0417 78.3958 73.875 79.125C75.4375 80.3958 76.9375 81.0312 78.375 81.0312C79.125 81.0312 79.8438 80.875 80.5312 80.5625C81.2396 80.2292 81.6667 80.0625 81.8125 80.0625C82.3333 80.0625 82.5938 80.3646 82.5938 80.9688C82.5938 81.2188 82.5312 81.5312 82.4062 81.9062C82.2812 82.2812 82.0312 82.7188 81.6562 83.2188C81.3021 83.6979 80.8542 84.1354 80.3125 84.5312C79.7917 84.9271 79.0625 85.2604 78.125 85.5312C77.1875 85.8229 76.1354 85.9688 74.9688 85.9688ZM86.25 46.9062H70.1875C69.7083 46.9062 69.3646 46.8438 69.1562 46.7188C68.9479 46.5938 68.8438 46.3646 68.8438 46.0312C68.8438 45.6146 69.0833 44.9271 69.5625 43.9688C70.0417 43.0104 70.5417 42.2917 71.0625 41.8125C71.5417 41.375 72.3125 41.1562 73.375 41.1562H89.5625C90.4583 41.1562 90.9062 41.5208 90.9062 42.25C90.9062 42.8333 90.6458 43.5104 90.125 44.2812C89.625 45.0312 89.0312 45.6979 88.3438 46.2812C87.8229 46.6979 87.125 46.9062 86.25 46.9062Z" fill="white"/>
</g>
</g>
<defs>
<filter id="filter0_d" x="0" y="2" width="128" height="128" filterUnits="userSpaceOnUse" color-interpolation-filters="sRGB">
<feFlood flood-opacity="0" result="BackgroundImageFix"/>
<feColorMatrix in="SourceAlpha" type="matrix" values="0 0 0 0 0 0 0 0 0 0 0 0 0 0 0 0 0 0 127 0"/>
<feOffset dy="2"/>
<feGaussianBlur stdDeviation="2"/>
<feColorMatrix type="matrix" values="0 0 0 0 0 0 0 0 0 0 0 0 0 0 0 0 0 0 0.28 0"/>
<feBlend mode="normal" in2="BackgroundImageFix" result="effect1_dropShadow"/>
<feBlend mode="normal" in="SourceGraphic" in2="effect1_dropShadow" result="shape"/>
</filter>
<filter id="filter1_d" x="30.9375" y="40.1875" width="66.0938" height="53.7812" filterUnits="userSpaceOnUse" color-interpolation-filters="sRGB">
<feFlood flood-opacity="0" result="BackgroundImageFix"/>
<feColorMatrix in="SourceAlpha" type="matrix" values="0 0 0 0 0 0 0 0 0 0 0 0 0 0 0 0 0 0 127 0"/>
<feOffset dy="4"/>
<feGaussianBlur stdDeviation="2"/>
<feColorMatrix type="matrix" values="0 0 0 0 0 0 0 0 0 0 0 0 0 0 0 0 0 0 0.25 0"/>
<feBlend mode="normal" in2="BackgroundImageFix" result="effect1_dropShadow"/>
<feBlend mode="normal" in="SourceGraphic" in2="effect1_dropShadow" result="shape"/>
</filter>
<linearGradient id="paint0_linear" x1="20.5" y1="35" x2="105.5" y2="103.5" gradientUnits="userSpaceOnUse">
<stop stop-color="#BC4E9C"/>
<stop offset="1" stop-color="#F80759"/>
</linearGradient>
<clipPath id="clip0">
<rect width="128" height="128" fill="white"/>
</clipPath>
</defs>
</svg>
